<svg width="338" height="338" viewBox="0 0 338 338" fill="none" xmlns="http://www.w3.org/2000/svg">
<path fill-rule="evenodd" clip-rule="evenodd" d="M231.472 272.577C184.636 300.76 122.916 294.022 83.3378 253.017C37.3116 205.332 38.6563 129.364 86.3412 83.3378C134.026 37.3116 209.994 38.6563 256.02 86.3412C295.351 127.089 300.091 188.49 270.882 234.212L227.472 189.237C234.53 168.323 229.956 144.293 213.569 127.316C190.173 103.076 151.556 102.392 127.316 125.789C103.076 149.186 102.392 187.803 125.789 212.042C142.453 229.307 166.838 234.622 188.25 227.798L231.472 272.577Z" fill="#4362D0"/>
<path d="M171.924 199L225.015 199L285.277 261.433L258.261 287.509L171.924 199Z" fill="#7890E7"/>
</svg>
